<svg width="720" height="960" viewBox="0 0 720 960" fill="none" xmlns="http://www.w3.org/2000/svg">
  <rect width="720" height="960" rx="54" fill="#020617"/>
  <rect x="32" y="32" width="656" height="896" rx="44" fill="#0F172A" stroke="#1E293B"/>
  <rect x="56" y="66" width="608" height="140" rx="34" fill="#1D4ED8" fill-opacity="0.24" stroke="#2563EB"/>
  <rect x="88" y="100" width="280" height="22" rx="11" fill="#DBEAFE" fill-opacity="0.95"/>
  <rect x="88" y="140" width="180" height="16" rx="8" fill="#BFDBFE" fill-opacity="0.78"/>
  <rect x="56" y="230" width="190" height="190" rx="36" fill="#111827" stroke="#334155"/>
  <rect x="274" y="230" width="190" height="190" rx="36" fill="#0F766E" fill-opacity="0.24" stroke="#115E59"/>
  <rect x="492" y="230" width="170" height="190" rx="36" fill="#111827" stroke="#334155"/>
  <rect x="56" y="456" width="606" height="130" rx="34" fill="#111827" stroke="#334155"/>
  <rect x="88" y="488" width="260" height="20" rx="10" fill="#E2E8F0" fill-opacity="0.92"/>
  <rect x="88" y="524" width="500" height="18" rx="9" fill="#94A3B8" fill-opacity="0.56"/>
  <rect x="56" y="620" width="606" height="230" rx="34" fill="#0B1120" stroke="#1E293B"/>
  <rect x="88" y="654" width="300" height="18" rx="9" fill="#67E8F9" fill-opacity="0.9"/>
  <rect x="88" y="694" width="470" height="18" rx="9" fill="#CBD5E1" fill-opacity="0.45"/>
  <rect x="88" y="732" width="430" height="18" rx="9" fill="#CBD5E1" fill-opacity="0.45"/>
  <rect x="88" y="770" width="390" height="18" rx="9" fill="#CBD5E1" fill-opacity="0.45"/>
  <rect x="88" y="816" width="210" height="42" rx="16" fill="#22D3EE"/>
</svg>
